<svg xmlns="http://www.w3.org/2000/svg" width="192" height="192" viewBox="0 0 192 192">
  <rect width="192" height="192" rx="40" fill="#09090b"/>
  <circle cx="96" cy="96" r="60" fill="#22c55e"/>
  <path d="M96 36c-33.137 0-60 26.863-60 60s26.863 60 60 60 60-26.863 60-60-26.863-60-60-60zm0 110c-27.614 0-50-22.386-50-50s22.386-50 50-50 50 22.386 50 50-22.386 50-50 50z" fill="#15803d"/>
  <circle cx="96" cy="96" r="20" fill="white"/>
  <path d="M96 76c-11.046 0-20 8.954-20 20s8.954 20 20 20 20-8.954 20-20-8.954-20-20-20zm0 30c-5.523 0-10-4.477-10-10s4.477-10 10-10 10 4.477 10 10-4.477 10-10 10z" fill="#09090b"/>
</svg>
